# xmcd CD database file
#
# Track frame offsets:
#	150
#	9308
#	31067
#	58228
#	79227
#	94274
#	114848
#	139487
#	157647
#	177079
#	198301
#	215202
#	233962
#	252663
#	271517
#	289703
#	305882
#	324759
#
# Disc length: 4751 seconds
#
# Revision: 0
# Processed by: cddbd v1.5.2PL0 Copyright (c) Steve Scherf et al.
# Submitted via: CDex 1.51
#
DISCID=f7128d12
DTITLE=Guido Negraszus - Memories And Dreams III
DYEAR=2006
DGENRE=New Age
TTITLE0=The Glory
TTITLE1=Road To The Sun Gate
TTITLE2=Crossroads Part IV
TTITLE3=Ramble Part VI
TTITLE4=Occidental Lights
TTITLE5=Feeling Good
TTITLE6=Ocean Fly
TTITLE7=Blue Island Beach
TTITLE8=Highway Images
TTITLE9=Land Of The Teddy Bears
TTITLE10=Princess' Dance
TTITLE11=African Sun
TTITLE12=Crossroads Part I
TTITLE13=Two Lovers
TTITLE14=Summer Dreams
TTITLE15=Asiatica
TTITLE16=Trance On Me
TTITLE17=The Sun Fields
EXTD=YEAR: 2006
EXTT0=
EXTT1=
EXTT2=
EXTT3=
EXTT4=
EXTT5=
EXTT6=
EXTT7=
EXTT8=
EXTT9=
EXTT10=
EXTT11=
EXTT12=
EXTT13=
EXTT14=
EXTT15=
EXTT16=
EXTT17=
PLAYORDER=
